<svg width="283" height="588" viewBox="0 0 283 588" fill="none" xmlns="http://www.w3.org/2000/svg">
<path d="M241.46 301.73L282.868 335.705V481.165C241.086 528.479 211.398 551.933 146.433 587.871C80.4256 552.601 49.9469 526.909 2.56628 474.794V319.248L46.629 351.631V457.806C82.1408 493.885 103.611 511.243 146.433 533.721C185.619 508.587 206.507 492.124 241.46 457.806V301.73Z" fill="white"/>
<path d="M43.331 218.263L0.733765 187.568V104.88C109.289 86.8544 170.526 86.1344 280.748 104.88V205.735L241.283 173.787V140.586C163.974 130.355 120.639 128.911 43.331 140.586V218.263Z" fill="#D42535"/>
<path d="M280.748 295.94V243.947L203.071 187.568V167.522H79.664V243.947L119.755 275.269V208.867H165.485L280.748 295.94Z" fill="#D42535"/>
<path d="M1.36121 222.649L160.475 342.297V300.952L152.854 294.924V238.764L210.137 281.165V443.467L143.587 497.662L74.7914 443.467V371.582L122.527 407.244V428.304L143.587 443.467L160.475 429.989V403.023L1.36121 281.165V222.649Z" fill="white"/>
<path d="M140.738 0.454102L149.559 26.7558H178.107L155.011 43.0112L163.833 69.313L140.738 53.0576L117.642 69.313L126.464 43.0112L103.369 26.7558H131.916L140.738 0.454102Z" fill="#D42535"/>
</svg>
