<svg width="283" height="588" viewBox="0 0 283 588" fill="none" xmlns="http://www.w3.org/2000/svg">
<path d="M241.195 301.298L282.604 335.273V480.733C240.821 528.047 211.133 551.501 146.168 587.438C80.1609 552.169 49.6822 526.477 2.30157 474.362V318.816L46.3643 351.199V457.374C81.8761 493.453 103.346 510.81 146.168 533.289C185.354 508.155 206.242 491.692 241.195 457.374V301.298Z" fill="black"/>
<path d="M43.0663 217.831L0.469055 187.136V104.448C109.024 86.4222 170.261 85.7023 280.483 104.448V205.303L241.018 173.355V140.154C163.71 129.923 120.375 128.479 43.0663 140.154V217.831Z" fill="#D42535"/>
<path d="M280.483 295.508V243.514L202.806 187.136V167.09H79.3993V243.514L119.491 274.836V208.435H165.22L280.483 295.508Z" fill="#D42535"/>
<path d="M1.0965 222.217L160.21 341.865V300.52L152.589 294.492V238.332L209.872 280.733V443.035L143.323 497.23L74.5267 443.035V371.15L122.263 406.812V427.872L143.323 443.035L160.21 429.557V402.591L1.0965 280.733V222.217Z" fill="black"/>
<path d="M140.473 0.0219727L149.295 26.3237H177.842L154.747 42.5791L163.568 68.8808L140.473 52.6255L117.378 68.8808L126.199 42.5791L103.104 26.3237H131.651L140.473 0.0219727Z" fill="#D42535"/>
</svg>
